
<svg xmlns="http://www.w3.org/2000/svg" viewBox="0 0 300.5 60.1"><defs><style>.cls-1{fill:#f3ba2f;}</style></defs><g id="Layer_2" data-name="Layer 2"><g id="Layer_1-2" data-name="Layer 1"><polygon class="cls-1" points="18.38 25.25 30.05 13.58 41.73 25.26 48.52 18.47 30.05 0 11.59 18.46 18.38 25.25"/><rect class="cls-1" x="1.99" y="25.25" width="9.6" height="9.6" transform="translate(-19.26 13.6) rotate(-45)"/><polygon class="cls-1" points="18.38 34.85 30.05 46.52 41.73 34.84 48.52 41.63 48.52 41.63 30.05 60.1 11.59 41.64 11.58 41.63 18.38 34.85"/><rect class="cls-1" x="48.51" y="25.25" width="9.6" height="9.6" transform="translate(-5.64 46.5) rotate(-45)"/><polygon class="cls-1" points="36.94 30.05 36.94 30.05 30.05 23.16 24.96 28.25 24.96 28.25 24.37 28.83 23.16 30.04 23.16 30.04 23.16 30.05 23.16 30.06 30.05 36.95 36.94 30.05 36.95 30.05 36.94 30.05"/><path class="cls-1" d="M70.69,14.56H85.46q5.51,0,8.32,2.83A7.36,7.36,0,0,1,96,22.8v.09a7.73,7.73,0,0,1-.34,2.42,7.52,7.52,0,0,1-.91,1.89,7.13,7.13,0,0,1-1.31,1.48,9,9,0,0,1-1.6,1.09,10.88,10.88,0,0,1,4.35,2.84,7.34,7.34,0,0,1,1.58,5v.09a8.31,8.31,0,0,1-.84,3.83,7.41,7.41,0,0,1-2.41,2.73,11.3,11.3,0,0,1-3.77,1.64,20.54,20.54,0,0,1-4.88.54H70.69ZM84,27.45a7.32,7.32,0,0,0,3.69-.8A2.75,2.75,0,0,0,89,24.08V24a2.82,2.82,0,0,0-1.19-2.44,5.84,5.84,0,0,0-3.41-.84H77.52v6.74Zm1.87,12.84a6.74,6.74,0,0,0,3.64-.84,2.9,2.9,0,0,0,1.32-2.62v-.09a3,3,0,0,0-1.23-2.53,6.64,6.64,0,0,0-4-.93h-8.1v7Z"/><path class="cls-1" d="M106.53,14.56h7V46.43h-7Z"/><path class="cls-1" d="M124.16,14.56h6.47l14.93,19.63V14.56h6.92V46.43h-6L131.08,26.17V46.43h-6.92Z"/><path class="cls-1" d="M173.71,14.34h6.46l13.66,32.09H186.5l-2.91-7.14H170.11l-2.91,7.14h-7.15Zm7.38,18.75-4.24-10.33-4.23,10.33Z"/><path class="cls-1" d="M201.4,14.56h6.47L222.8,34.19V14.56h6.92V46.43h-6L208.32,26.17V46.43H201.4Z"/><path class="cls-1" d="M255,47a16.65,16.65,0,0,1-6.51-1.27,15.79,15.79,0,0,1-8.61-8.7,16.76,16.76,0,0,1-1.23-6.42V30.5a16.62,16.62,0,0,1,1.23-6.4,16.34,16.34,0,0,1,3.42-5.23,15.75,15.75,0,0,1,5.23-3.56A17.12,17.12,0,0,1,255.23,14a21.25,21.25,0,0,1,4.07.36,17.12,17.12,0,0,1,3.35,1,14.71,14.71,0,0,1,2.78,1.55,19.88,19.88,0,0,1,2.37,2l-4.47,5.15a16.62,16.62,0,0,0-3.8-2.64,9.65,9.65,0,0,0-4.35-1,8.82,8.82,0,0,0-6.64,2.92,10,10,0,0,0-1.92,3.16,10.86,10.86,0,0,0-.68,3.85v.09a11.1,11.1,0,0,0,.68,3.87,10.32,10.32,0,0,0,1.89,3.18,8.72,8.72,0,0,0,6.67,3,9.71,9.71,0,0,0,4.62-1,17.67,17.67,0,0,0,3.76-2.73L268,41.29a23.42,23.42,0,0,1-2.55,2.37,15.39,15.39,0,0,1-2.89,1.79,14.11,14.11,0,0,1-3.43,1.14A20.66,20.66,0,0,1,255,47Z"/><path class="cls-1" d="M276.28,14.56h24V20.8H283.2v6.47h15V33.5h-15v6.7h17.3v6.23H276.28Z"/></g></g></svg>