<svg width="64px" height="64px" viewBox="0 0 64 64" version="1.1" xmlns="http://www.w3.org/2000/svg" xmlns:xlink="http://www.w3.org/1999/xlink">
    <!-- Generator: Sketch 53.2 (72643) - https://sketchapp.com -->
    <title>Group 22</title>
    <desc>Created with Sketch.</desc>
    <defs>
        <polygon id="path-1" points="0 0.000237037037 63.999763 0.000237037037 63.999763 64 0 64"></polygon>
    </defs>
    <g id="RenProject" stroke="none" stroke-width="1" fill="none" fill-rule="evenodd">
        <g id="home" transform="translate(-344.000000, -1475.000000)">
            <g id="Group-22" transform="translate(344.000000, 1475.000000)">
                <g id="Group-3">
                    <mask id="mask-2" fill="white">
                        <use xlink:href="#path-1"></use>
                    </mask>
                    <g id="Clip-2"></g>
                    <path d="M42.6664296,64.000237 L21.3330963,64.000237 C9.55235556,64.000237 -0.000237037037,54.4488296 -0.000237037037,42.6669037 L-0.000237037037,21.3335704 C-0.000237037037,9.55164444 9.55235556,0.000237037037 21.3330963,0.000237037037 L42.6664296,0.000237037037 C54.4483556,0.000237037037 63.999763,9.55164444 63.999763,21.3335704 L63.999763,42.6669037 C63.999763,54.4488296 54.4483556,64.000237 42.6664296,64.000237" id="Fill-1" fill="#006FE8" mask="url(#mask-2)"></path>
                </g>
                <path d="M31.999763,23.7508741 C37.9173926,23.7508741 42.713837,28.5473185 42.713837,34.4649481 C42.713837,40.3825778 37.9173926,45.1790222 31.999763,45.1790222 C26.0833185,45.1790222 21.2856889,40.3825778 21.2856889,34.4649481 C21.2856889,28.5473185 26.0833185,23.7508741 31.999763,23.7508741" id="Fill-4" fill="#82B8F2"></path>
                <path d="M12.3597037,35.3092741 C12.3597037,24.4624593 21.1537778,15.6695704 31.9994074,15.6695704 C42.8474074,15.6695704 51.6402963,24.4624593 51.6402963,35.3092741" id="Fill-6" fill="#FFFFFF"></path>
                <path d="M31.999763,29.6547556 C34.6569481,29.6547556 36.8104296,31.808237 36.8104296,34.4654222 C36.8104296,37.1214222 34.6569481,39.2749037 31.999763,39.2749037 C29.343763,39.2749037 27.1890963,37.1214222 27.1890963,34.4654222 C27.1890963,31.808237 29.343763,29.6547556 31.999763,29.6547556" id="Fill-8" fill="#4495EB"></path>
                <polygon id="Fill-10" fill="#0053AE" points="32.1710222 32.0309333 48.7707259 33.3630815 48.7707259 34.5482667 32.1710222 35.8804148"></polygon>
                <path d="M32.1143704,18.1293037 L32.1143704,22.0309333" id="Stroke-12" stroke="#82B8F2" stroke-width="1.049"></path>
                <path d="M41.3562074,20.6125037 L39.4006519,23.9890963" id="Stroke-14" stroke="#82B8F2" stroke-width="1.049"></path>
                <path d="M48.1236148,27.4192593 L44.7363556,29.3546667" id="Stroke-16" stroke="#82B8F2" stroke-width="1.049"></path>
                <path d="M23.9696593,20.0257185 L25.6929185,23.5255704" id="Stroke-18" stroke="#82B8F2" stroke-width="1.049"></path>
                <path d="M16.8017778,26.2954667 L20.0420741,28.4690963" id="Stroke-20" stroke="#82B8F2" stroke-width="1.049"></path>
            </g>
        </g>
    </g>
</svg>