<svg width="64px" height="64px" viewBox="0 0 64 64" version="1.1" xmlns="http://www.w3.org/2000/svg" xmlns:xlink="http://www.w3.org/1999/xlink">
    <!-- Generator: Sketch 53.2 (72643) - https://sketchapp.com -->
    <title>icon-composability</title>
    <desc>Created with Sketch.</desc>
    <g id="renproject.io" stroke="none" stroke-width="1" fill="none" fill-rule="evenodd">
        <g id="home" transform="translate(-1060.000000, -1475.000000)">
            <g id="icon-composability" transform="translate(1060.000000, 1475.000000)">
                <path d="M42.6666667,64 L21.3333333,64 C9.55125867,64 1.442888e-15,54.4487413 0,42.6666667 L0,21.3333333 C-1.442888e-15,9.55125867 9.55125867,2.164332e-15 21.3333333,0 L42.6666667,0 C54.4487413,7.21444001e-16 64,9.55125867 64,21.3333333 L64,42.6666667 C64,54.4487413 54.4487413,64 42.6666667,64" id="Path" fill="#006FE8"></path>
                <path d="M15.6207407,28.0533333 L11.8518519,28.0533333 C9.78614415,28.0468271 8.11317288,26.3738558 8.10666667,24.3081481 L8.10666667,20.5511111 C8.11317288,18.4854034 9.78614415,16.8124321 11.8518519,16.8059259 L15.6088889,16.8059259 C17.6745966,16.8124321 19.3475679,18.4854034 19.3540741,20.5511111 L19.3540741,24.3081481 C19.3475679,26.3738558 17.6745966,28.0468271 15.6088889,28.0533333" id="Path" fill="#2A86EB"></path>
                <path d="M26.8681481,28.0533333 L23.122963,28.0533333 C21.0526283,28.0533436 19.3724569,26.3784725 19.3659259,24.3081481 L19.3659259,20.5511111 C19.3724569,18.4807868 21.0526283,16.8059156 23.122963,16.8059259 L26.8681481,16.8059259 C28.9365568,16.8059259 30.6133333,18.4827024 30.6133333,20.5511111 L30.6133333,24.3081481 C30.6133333,26.3765568 28.9365568,28.0533333 26.8681481,28.0533333" id="Path" fill="#2A86EB"></path>
                <path d="M38.1155556,28.0533333 L34.3703704,28.0533333 C32.3000357,28.0533436 30.6198644,26.3784725 30.6133333,24.3081481 L30.6133333,20.5511111 C30.6198644,18.4807868 32.3000357,16.8059156 34.3703704,16.8059259 L38.1155556,16.8059259 C40.1839642,16.8059259 41.8607407,18.4827024 41.8607407,20.5511111 L41.8607407,24.3081481 C41.8607407,26.3765568 40.1839642,28.0533333 38.1155556,28.0533333" id="Path" fill="#2A86EB"></path>
                <path d="M15.6207407,39.3007407 L11.8518519,39.3007407 C9.78807313,39.2942098 8.11850818,37.6193446 8.11851852,35.5555556 L8.11851852,31.8103704 C8.1184774,29.7446378 9.78616044,28.0663663 11.8518519,28.0533333 L15.6088889,28.0533333 C17.6792132,28.0598644 19.3540844,29.7400357 19.3540741,31.8103704 L19.3540741,35.5555556 C19.3540741,37.6239642 17.6772976,39.3007407 15.6088889,39.3007407" id="Path" fill="#2A86EB"></path>
                <path d="M26.8681481,39.3007407 L23.122963,39.3007407 C22.1276262,39.3038906 21.1719761,38.9107006 20.4670522,38.2080005 C19.7621283,37.5053003 19.3659209,36.5508973 19.3659259,35.5555556 L19.3659259,31.8103704 C19.3659259,30.8139422 19.7617555,29.8583251 20.4663366,29.153744 C21.1709177,28.4491629 22.1265348,28.0533333 23.122963,28.0533333 L26.8681481,28.0533333 C27.8634899,28.0533283 28.8178929,28.4495357 29.5205931,29.1544596 C30.2232932,29.8593835 30.6164831,30.8150336 30.6133333,31.8103704 L30.6133333,35.5555556 C30.6164947,36.5498062 30.2229291,37.5042467 29.5198842,38.2072916 C28.8168392,38.9103365 27.8623988,39.3039021 26.8681481,39.3007407" id="Path" fill="#2A86EB"></path>
                <path d="M38.1155556,39.3007407 L34.3703704,39.3007407 C33.3750336,39.3038906 32.4193835,38.9107006 31.7144596,38.2080005 C31.0095357,37.5053003 30.6133283,36.5508973 30.6133333,35.5555556 L30.6133333,31.8103704 C30.6133333,29.7354161 32.2954161,28.0533333 34.3703704,28.0533333 L38.1155556,28.0533333 C39.1108973,28.0533283 40.0653003,28.4495357 40.7680005,29.1544596 C41.4707006,29.8593835 41.8638906,30.8150336 41.8607407,31.8103704 L41.8607407,35.5555556 C41.8639021,36.5498062 41.4703365,37.5042467 40.7672916,38.2072916 C40.0642467,38.9103365 39.1098062,39.3039021 38.1155556,39.3007407" id="Path" fill="#2A86EB"></path>
                <path d="M15.6207407,50.56 L11.8518519,50.56 C9.78152753,50.553469 8.10665637,48.8732976 8.10666667,46.802963 L8.10666667,43.0577778 C8.10665637,40.9874432 9.78152753,39.3072718 11.8518519,39.3007407 L15.6088889,39.3007407 C17.6792132,39.3072718 19.3540844,40.9874432 19.3540741,43.0577778 L19.3540741,46.802963 C19.3540844,48.8732976 17.6792132,50.553469 15.6088889,50.56" id="Path" fill="#2A86EB"></path>
                <path d="M26.8681481,50.56 L23.122963,50.56 C21.0480087,50.56 19.3659259,48.8779172 19.3659259,46.802963 L19.3659259,43.0577778 C19.3659259,40.9828235 21.0480087,39.3007407 23.122963,39.3007407 L26.8681481,39.3007407 C27.8634899,39.3007358 28.8178929,39.6969431 29.5205931,40.401867 C30.2232932,41.1067909 30.6164831,42.062441 30.6133333,43.0577778 L30.6133333,46.802963 C30.6164831,47.7982997 30.2232932,48.7539498 29.5205931,49.4588737 C28.8178929,50.1637976 27.8634899,50.560005 26.8681481,50.56" id="Path" fill="#2A86EB"></path>
                <path d="M38.1155556,50.56 L34.3703704,50.56 C32.2954161,50.56 30.6133333,48.8779172 30.6133333,46.802963 L30.6133333,43.0577778 C30.6133333,40.9828235 32.2954161,39.3007407 34.3703704,39.3007407 L38.1155556,39.3007407 C39.1108973,39.3007358 40.0653003,39.6969431 40.7680005,40.401867 C41.4707006,41.1067909 41.8638906,42.062441 41.8607407,43.0577778 L41.8607407,46.802963 C41.8638906,47.7982997 41.4707006,48.7539498 40.7680005,49.4588737 C40.0653003,50.1637976 39.1108973,50.560005 38.1155556,50.56" id="Path" fill="#2A86EB"></path>
                <path d="M49.362963,28.0533333 L45.6177778,28.0533333 C43.5474432,28.0533436 41.8672718,26.3784725 41.8607407,24.3081481 L41.8607407,20.5511111 C41.8607358,19.5557694 42.2569431,18.6013663 42.961867,17.8986662 C43.6667909,17.195966 44.622441,16.8027761 45.6177778,16.8059259 L49.362963,16.8059259 C50.3582997,16.8027761 51.3139498,17.195966 52.0188737,17.8986662 C52.7237976,18.6013663 53.120005,19.5557694 53.12,20.5511111 L53.12,24.3081481 C53.113469,26.3784725 51.4332976,28.0533436 49.362963,28.0533333" id="Path" fill="#2A86EB"></path>
                <path d="M49.362963,39.3007407 L45.6177778,39.3007407 C44.622441,39.3038906 43.6667909,38.9107006 42.961867,38.2080005 C42.2569431,37.5053003 41.8607358,36.5508973 41.8607407,35.5555556 L41.8607407,31.7985185 C41.8672718,29.7281942 43.5474432,28.053323 45.6177778,28.0533333 L49.362963,28.0533333 C51.4332976,28.053323 53.113469,29.7281942 53.12,31.7985185 L53.12,35.5555556 C53.120005,36.5508973 52.7237976,37.5053003 52.0188737,38.2080005 C51.3139498,38.9107006 50.3582997,39.3038906 49.362963,39.3007407" id="Path" fill="#2A86EB"></path>
                <path d="M49.362963,50.5481481 L45.6177778,50.5481481 C44.622441,50.551298 43.6667909,50.158108 42.961867,49.4554079 C42.2569431,48.7527077 41.8607358,47.7983047 41.8607407,46.802963 L41.8607407,43.0577778 C41.8607407,40.9828235 43.5428235,39.3007407 45.6177778,39.3007407 L49.362963,39.3007407 C51.4379172,39.3007407 53.12,40.9828235 53.12,43.0577778 L53.12,46.802963 C53.120005,47.7983047 52.7237976,48.7527077 52.0188737,49.4554079 C51.3139498,50.158108 50.3582997,50.551298 49.362963,50.5481481" id="Path" fill="#2A86EB"></path>
                <path d="M16.9955556,26.3703704 L13.2503704,26.3703704 C12.2520248,26.379884 11.2914633,25.9891247 10.5832709,25.2853863 C9.87507843,24.5816479 9.47826666,23.6235709 9.48148148,22.6251852 L9.48148148,18.88 C9.47833167,17.8846632 9.87152159,16.9290131 10.5742217,16.2240892 C11.2769219,15.5191654 12.2313249,15.122958 13.2266667,15.122963 L16.9718519,15.122963 C19.0468061,15.122963 20.7288889,16.8050457 20.7288889,18.88 L20.7288889,22.6251852 C20.7288939,23.6205269 20.3326865,24.57493 19.6277626,25.2776301 C18.9228387,25.9803303 17.9671886,26.3735202 16.9718519,26.3703704" id="Path" fill="#A6CBF3"></path>
                <path d="M28.242963,26.3703704 L24.4977778,26.3703704 C23.5035271,26.3735318 22.5490867,25.9799662 21.8460417,25.2769212 C21.1429968,24.5738763 20.7494312,23.6194358 20.7525926,22.6251852 L20.7525926,18.88 C20.7494428,17.8846632 21.1426327,16.9290131 21.8453329,16.2240892 C22.548033,15.5191654 23.502436,15.122958 24.4977778,15.122963 L28.242963,15.122963 C29.2393911,15.122963 30.1950082,15.5187925 30.8995893,16.2233736 C31.6041704,16.9279548 32,17.8835718 32,18.88 L32,22.6251852 C32.000005,23.6205269 31.6037976,24.57493 30.8988737,25.2776301 C30.1939498,25.9803303 29.2382997,26.3735202 28.242963,26.3703704" id="Path" fill="#A6CBF3"></path>
                <path d="M39.5022222,26.3703704 L35.7451852,26.3703704 C33.6767765,26.3703704 32,24.6935938 32,22.6251852 L32,18.88 C31.9999897,16.8096654 33.6748609,15.129494 35.7451852,15.122963 L39.5022222,15.122963 C41.5725465,15.129494 43.2474177,16.8096654 43.2474074,18.88 L43.2474074,22.6251852 C43.2474074,24.6935938 41.5706309,26.3703704 39.5022222,26.3703704" id="Path" fill="#FFFFFF"></path>
                <path d="M16.9955556,37.6296296 L13.2503704,37.6296296 C12.2509274,37.6359604 11.2904148,37.2425459 10.5825756,36.5369326 C9.87473639,35.8313193 9.47829857,34.8720506 9.48148148,33.8725926 L9.48148148,30.1274074 C9.47833167,29.1320706 9.87152159,28.1764205 10.5742217,27.4714967 C11.2769219,26.7665728 12.2313249,26.3703654 13.2266667,26.3703704 L16.9718519,26.3703704 C19.0468061,26.3703704 20.7288889,28.0524531 20.7288889,30.1274074 L20.7288889,33.8725926 C20.7288889,35.9475469 19.0468061,37.6296296 16.9718519,37.6296296" id="Path" fill="#A6CBF3"></path>
                <path d="M28.242963,37.6296296 L24.4977778,37.6296296 C23.502436,37.6296346 22.548033,37.2334272 21.8453329,36.5285033 C21.1426327,35.8235795 20.7494428,34.8679294 20.7525926,33.8725926 L20.7525926,30.1274074 C20.7494428,29.1320706 21.1426327,28.1764205 21.8453329,27.4714967 C22.548033,26.7665728 23.502436,26.3703654 24.4977778,26.3703704 L28.242963,26.3703704 C29.2393911,26.3703704 30.1950082,26.7661999 30.8995893,27.470781 C31.6041704,28.1753622 32,29.1309792 32,30.1274074 L32,33.8725926 C32,34.8690208 31.6041704,35.8246378 30.8995893,36.529219 C30.1950082,37.2338001 29.2393911,37.6296296 28.242963,37.6296296" id="Path" fill="#FFFFFF"></path>
                <path d="M39.5022222,37.6296296 L35.7451852,37.6296296 C33.6748609,37.6230986 31.9999897,35.9429272 32,33.8725926 L32,30.1274074 C31.9999897,28.0570728 33.6748609,26.3769014 35.7451852,26.3703704 L39.5022222,26.3703704 C41.5725465,26.3769014 43.2474177,28.0570728 43.2474074,30.1274074 L43.2474074,33.8725926 C43.2474177,35.9429272 41.5725465,37.6230986 39.5022222,37.6296296" id="Path" fill="#FFFFFF"></path>
                <path d="M16.9955556,48.877037 L13.2503704,48.877037 C12.2529849,48.8833497 11.2942815,48.4915574 10.586788,47.7885136 C9.87929456,47.0854697 9.4814615,46.1292573 9.48148148,45.1318519 L9.48148148,41.3748148 C9.47832009,40.3805642 9.87188569,39.4261237 10.5749306,38.7230788 C11.2779756,38.0200338 12.232416,37.6264682 13.2266667,37.6296296 L16.9718519,37.6296296 C17.9671886,37.6264798 18.9228387,38.0196697 19.6277626,38.7223699 C20.3326865,39.42507 20.7288939,40.3794731 20.7288889,41.3748148 L20.7288889,45.1318519 C20.7223579,47.2021762 19.0421865,48.8770473 16.9718519,48.877037" id="Path" fill="#A6CBF3"></path>
                <path d="M28.242963,48.877037 L24.4977778,48.877037 C22.4293691,48.877037 20.7525926,47.2002605 20.7525926,45.1318519 L20.7525926,41.3748148 C20.7494312,40.3805642 21.1429968,39.4261237 21.8460417,38.7230788 C22.5490867,38.0200338 23.5035271,37.6264682 24.4977778,37.6296296 L28.242963,37.6296296 C29.2382997,37.6264798 30.1939498,38.0196697 30.8988737,38.7223699 C31.6037976,39.42507 32.000005,40.3794731 32,41.3748148 L32,45.1318519 C31.993469,47.2021762 30.3132976,48.8770473 28.242963,48.877037" id="Path" fill="#539DEE"></path>
                <path d="M39.5022222,48.877037 L35.7451852,48.877037 C33.6794775,48.8705308 32.0065062,47.1975596 32,45.1318519 L32,41.3748148 C32,39.3064062 33.6767765,37.6296296 35.7451852,37.6296296 L39.5022222,37.6296296 C41.5706309,37.6296296 43.2474074,39.3064062 43.2474074,41.3748148 L43.2474074,45.1318519 C43.2409012,47.1975596 41.5679299,48.8705308 39.5022222,48.877037" id="Path" fill="#A6CBF3"></path>
                <path d="M50.7496296,26.3703704 L46.9925926,26.3703704 C44.9241839,26.3703704 43.2474074,24.6935938 43.2474074,22.6251852 L43.2474074,18.8681481 C43.2539136,16.8024404 44.9268849,15.1294692 46.9925926,15.122963 L50.7496296,15.122963 C51.7470151,15.1166503 52.7057185,15.5084426 53.413212,16.2114864 C54.1207054,16.9145303 54.5185385,17.8707427 54.5185185,18.8681481 L54.5185185,22.6251852 C54.5216799,23.6194358 54.1281143,24.5738763 53.4250694,25.2769212 C52.7220244,25.9799662 51.767584,26.3735318 50.7733333,26.3703704" id="Path" fill="#539DEE"></path>
                <path d="M50.7496296,37.6177778 L46.9925926,37.6177778 C44.9241839,37.6177778 43.2474074,35.9410013 43.2474074,33.8725926 L43.2474074,30.1274074 C43.2473971,28.0570728 44.9222683,26.3769014 46.9925926,26.3703704 L50.7496296,26.3703704 C51.7490726,26.3640396 52.7095852,26.7574541 53.4174244,27.4630674 C54.1252636,28.1686807 54.5217014,29.1279494 54.5185185,30.1274074 L54.5185185,33.8725926 C54.5216799,34.8668433 54.1281143,35.8212837 53.4250694,36.5243286 C52.7220244,37.2273736 51.767584,37.6209392 50.7733333,37.6177778" id="Path" fill="#A6CBF3"></path>
                <path d="M50.7496296,48.877037 L46.9925926,48.877037 C44.9222683,48.870506 43.2473971,47.1903346 43.2474074,45.12 L43.2474074,41.3748148 C43.2473971,39.3044802 44.9222683,37.6243088 46.9925926,37.6177778 L50.7496296,37.6177778 C51.7490726,37.611447 52.7095852,38.0048615 53.4174244,38.7104748 C54.1252636,39.4160881 54.5217014,40.3753568 54.5185185,41.3748148 L54.5185185,45.12 C54.5216683,46.1153368 54.1284784,47.0709869 53.4257783,47.7759108 C52.7230781,48.4808346 51.7686751,48.877042 50.7733333,48.877037" id="Path" fill="#A6CBF3"></path>
            </g>
        </g>
    </g>
</svg>